<svg width="24" height="24" viewBox="0 0 24 24" fill="none" xmlns="http://www.w3.org/2000/svg">
<path d="M2.00006 18.1668C2 18.0914 2 18.0137 2 17.9336V6.73357C2 5.42677 2 4.77289 2.25432 4.27377C2.47802 3.83472 2.83472 3.47802 3.27377 3.25432C3.77289 3 4.42677 3 5.73357 3H19.2669C20.5737 3 21.2268 3 21.7259 3.25432C22.1649 3.47802 22.5222 3.83472 22.7459 4.27377C23 4.7724 23 5.42549 23 6.72973V17.937C23 18.5028 23 18.9459 22.9792 19.307M2.00006 18.1668C2.00096 19.3198 2.0156 19.9234 2.25432 20.392C2.47802 20.831 2.83472 21.1889 3.27377 21.4126C3.7724 21.6667 4.42549 21.6667 5.72973 21.6667H19.2709C20.5751 21.6667 21.2272 21.6667 21.7259 21.4126C22.1649 21.1889 22.5222 20.831 22.7459 20.392C22.8897 20.1096 22.9522 19.7782 22.9792 19.307M2.00006 18.1668L7.56264 11.6771L7.56429 11.6753C8.05765 11.0997 8.30474 10.8114 8.59781 10.7075C8.85526 10.6162 9.13634 10.6183 9.3925 10.7132C9.68441 10.8213 9.92757 11.1129 10.4139 11.6965L13.5303 15.4361C13.9805 15.9764 14.2068 16.248 14.4817 16.3571C14.7242 16.4532 14.9916 16.464 15.2418 16.3902C15.5266 16.3062 15.7773 16.0555 16.2786 15.5542L16.8584 14.9743C17.3688 14.4639 17.6241 14.2089 17.913 14.1255C18.1666 14.0523 18.4379 14.0681 18.6819 14.1687C18.9598 14.2835 19.1852 14.5645 19.6361 15.1281L22.9792 19.307M22.9792 19.307L23 19.3329M16 10C15.3556 10 14.8333 9.47766 14.8333 8.83333C14.8333 8.18901 15.3556 7.66667 16 7.66667C16.6443 7.66667 17.1667 8.18901 17.1667 8.83333C17.1667 9.47766 16.6443 10 16 10Z" stroke="#551756" stroke-width="1.5" stroke-linecap="round" stroke-linejoin="round"/>
</svg>
