<!DOCTYPE svg PUBLIC "-//W3C//DTD SVG 1.1//EN" "http://www.w3.org/Graphics/SVG/1.1/DTD/svg11.dtd">
<!-- Uploaded to: SVG Repo, www.svgrepo.com, Transformed by: SVG Repo Mixer Tools -->
<svg version="1.1" id="Layer_1" xmlns="http://www.w3.org/2000/svg" xmlns:xlink="http://www.w3.org/1999/xlink" viewBox="0 0 512 512" xml:space="preserve" width="64px" height="64px" fill="#000000">
<g id="SVGRepo_bgCarrier" stroke-width="0"/>
<g id="SVGRepo_tracerCarrier" stroke-linecap="round" stroke-linejoin="round"/>
<g id="SVGRepo_iconCarrier"> <circle style="fill:#FC6F58;" cx="256" cy="256" r="256"/> <path style="fill:#F1543F;" d="M437.019,437.019c47.468-47.468,72.382-108.94,74.773-171.118L394.157,148.266L179.502,311.165 l-61.859,52.339L265.93,511.791C328.097,509.393,389.558,484.481,437.019,437.019z"/> <path style="fill:#E6F3FF;" d="M381.128,369.778H130.874c-9.442,0-17.094-7.654-17.094-17.096V159.318 c0-9.442,7.654-17.094,17.094-17.094h250.254c9.442,0,17.094,7.654,17.094,17.094v193.365 C398.222,362.124,390.568,369.778,381.128,369.778z"/> <path style="fill:#CFDBE6;" d="M381.128,142.222h-124.84v227.556h124.84c9.442,0,17.096-7.654,17.096-17.096V159.318 C398.222,149.876,390.568,142.222,381.128,142.222z"/> <path style="fill:#FFD15D;" d="M398.222,159.318c0-9.442-7.654-17.096-17.096-17.096H130.874c-9.442,0-17.096,7.654-17.096,17.096 v7.901h284.444V159.318z"/> <path style="fill:#F9B54C;" d="M398.222,159.318c0-9.442-7.654-17.096-17.096-17.096h-124.84v24.997h141.936V159.318z"/> <path style="fill:#FFD15D;" d="M113.778,350.815v1.867c0,9.442,7.654,17.096,17.096,17.096h250.254 c9.442,0,17.096-7.654,17.096-17.096v-1.867H113.778z"/> <path style="fill:#F9B54C;" d="M256.288,350.815v18.963h124.84c9.442,0,17.096-7.654,17.096-17.096v-1.867H256.288z"/> <g> <circle style="fill:#F1543F;" cx="136.826" cy="156.444" r="6.034"/> <circle style="fill:#F1543F;" cx="161.185" cy="156.444" r="6.034"/> <circle style="fill:#F1543F;" cx="185.527" cy="156.444" r="6.034"/> </g> <path style="fill:#324A5E;" d="M369.778,187.906H142.222c-3.808,0-6.896,3.088-6.896,6.896v70.68c0,3.808,3.088,6.896,6.896,6.896 h227.556c3.808,0,6.896-3.088,6.896-6.896v-70.68C376.673,190.993,373.586,187.906,369.778,187.906z M149.118,205.033l83.053,25.109 l-83.053,25.109V205.033z M185.742,201.697h140.512L256,222.937L185.742,201.697z M256,237.346l70.256,21.24H185.744L256,237.346z M279.828,230.141l83.053-25.109v50.217L279.828,230.141z"/> <path style="fill:#2B3B4E;" d="M369.778,187.906h-113.49v13.791h69.968l-69.968,21.154v14.583l69.968,21.152h-69.968v13.791h113.49 c3.808,0,6.896-3.088,6.896-6.896v-70.68C376.673,190.993,373.586,187.906,369.778,187.906z M362.882,255.25l-83.054-25.109 l83.053-25.109v50.217H362.882z"/> <g> <rect x="137.051" y="289.185" style="fill:#CFDBE6;" width="237.899" height="6.896"/> <rect x="137.051" y="311.165" style="fill:#CFDBE6;" width="237.899" height="6.896"/> <rect x="137.051" y="333.145" style="fill:#CFDBE6;" width="237.899" height="6.896"/> </g> <g> <rect x="256.293" y="289.185" style="fill:#B8C9D9;" width="118.662" height="6.896"/> <rect x="256.293" y="311.165" style="fill:#B8C9D9;" width="118.662" height="6.896"/> <rect x="256.293" y="333.145" style="fill:#B8C9D9;" width="118.662" height="6.896"/> </g> </g>
</svg>