<svg width="70" height="70" viewBox="0 0 70 70" fill="none" xmlns="http://www.w3.org/2000/svg">
<circle cx="34.9933" cy="35" r="35" fill="#DCF6E6"/>
<path d="M36.7762 32.35C37.7886 30.9354 38.3329 29.2395 38.3329 27.5C38.3329 25.7605 37.7886 24.0646 36.7762 22.65C37.7242 22.0042 38.8458 21.6613 39.9928 21.6667C41.5399 21.6667 43.0237 22.2812 44.1176 23.3752C45.2116 24.4692 45.8262 25.9529 45.8262 27.5C45.8262 29.0471 45.2116 30.5308 44.1176 31.6248C43.0237 32.7187 41.5399 33.3333 39.9928 33.3333C38.8458 33.3387 37.7242 32.9958 36.7762 32.35ZM24.1595 27.5C24.1595 26.3463 24.5016 25.2185 25.1426 24.2592C25.7836 23.2999 26.6946 22.5522 27.7605 22.1107C28.8264 21.6692 29.9993 21.5537 31.1309 21.7787C32.2624 22.0038 33.3018 22.5594 34.1176 23.3752C34.9334 24.191 35.489 25.2304 35.7141 26.362C35.9392 27.4935 35.8236 28.6664 35.3821 29.7323C34.9406 30.7982 34.1929 31.7093 33.2337 32.3502C32.2744 32.9912 31.1466 33.3333 29.9928 33.3333C28.4457 33.3333 26.962 32.7187 25.868 31.6248C24.7741 30.5308 24.1595 29.0471 24.1595 27.5ZM27.4928 27.5C27.4928 27.9944 27.6395 28.4778 27.9142 28.8889C28.1889 29.3 28.5793 29.6205 29.0361 29.8097C29.4929 29.9989 29.9956 30.0484 30.4806 29.952C30.9655 29.8555 31.411 29.6174 31.7606 29.2678C32.1102 28.9181 32.3483 28.4727 32.4448 27.9877C32.5413 27.5028 32.4918 27.0001 32.3025 26.5433C32.1133 26.0865 31.7929 25.696 31.3818 25.4213C30.9706 25.1466 30.4873 25 29.9928 25C29.3298 25 28.6939 25.2634 28.2251 25.7322C27.7562 26.2011 27.4928 26.8369 27.4928 27.5ZM41.6595 43.3333V46.6667H18.3262V43.3333C18.3262 43.3333 18.3262 36.6667 29.9928 36.6667C41.6595 36.6667 41.6595 43.3333 41.6595 43.3333ZM38.3262 43.3333C38.0928 42.0333 36.1095 40 29.9928 40C23.8762 40 21.7762 42.1833 21.6595 43.3333M41.5762 36.6667C42.5977 37.4612 43.4329 38.4697 44.0231 39.6214C44.6134 40.7731 44.9444 42.0401 44.9928 43.3333V46.6667H51.6595V43.3333C51.6595 43.3333 51.6595 37.2833 41.5595 36.6667H41.5762Z" fill="#699836"/>
</svg>
