<!DOCTYPE svg PUBLIC "-//W3C//DTD SVG 1.1//EN" "http://www.w3.org/Graphics/SVG/1.1/DTD/svg11.dtd">
<!-- Uploaded to: SVG Repo, www.svgrepo.com, Transformed by: SVG Repo Mixer Tools -->
<svg width="64px" height="64px" viewBox="0 0 1024 1024" class="icon" version="1.1" xmlns="http://www.w3.org/2000/svg" fill="#000000">
<g id="SVGRepo_bgCarrier" stroke-width="0"/>
<g id="SVGRepo_tracerCarrier" stroke-linecap="round" stroke-linejoin="round"/>
<g id="SVGRepo_iconCarrier">
<path d="M933.973333 221.333333A21.312 21.312 0 0 0 917.333333 213.333333H192v426.666667h640c10.005333 0 18.645333-6.954667 20.842667-16.704l85.333333-384a21.333333 21.333333 0 0 0-4.202667-17.962667z" fill="#43A6DD"/>
<path d="M1002.666667 768H192a21.333333 21.333333 0 0 1-21.333333-21.333333V128H64a21.333333 21.333333 0 1 1 0-42.666667h128a21.333333 21.333333 0 0 1 21.333333 21.333334v618.666666h789.333334a21.333333 21.333333 0 1 1 0 42.666667z" fill="#B3B3B3"/>
<path d="M697.749333 347.584a21.312 21.312 0 0 0-30.165333 0L576 439.168V64a21.333333 21.333333 0 1 0-42.666667 0v375.168l-91.584-91.584a21.312 21.312 0 1 0-30.165333 30.165333l127.978667 127.978667c8.298667 8.32 21.866667 8.362667 30.208 0l127.978666-127.978667a21.312 21.312 0 0 0 0-30.165333zM298.666667 810.666667a85.333333 85.333333 0 1 0 0 170.666666 85.333333 85.333333 0 0 0 0-170.666666zM874.666667 810.666667a85.333333 85.333333 0 1 0 0 170.666666 85.333333 85.333333 0 0 0 0-170.666666z" fill="#223E49"/>
<path d="M298.666667 896m-42.666667 0a42.666667 42.666667 0 1 0 85.333333 0 42.666667 42.666667 0 1 0-85.333333 0Z" fill="#FFFFFF"/>
<path d="M874.666667 896m-42.666667 0a42.666667 42.666667 0 1 0 85.333333 0 42.666667 42.666667 0 1 0-85.333333 0Z" fill="#FFFFFF"/>
</g>
</svg>