<svg width="35" height="36" viewBox="0 0 35 36" fill="none" xmlns="http://www.w3.org/2000/svg">
<rect x="0.5" y="1.26562" width="34" height="34" rx="17" fill="#FF3333"/>
<rect x="0.5" y="1.26562" width="34" height="34" rx="17" stroke="#FF7373"/>
<path d="M15.833 20.7656L15.833 18.2656" stroke="white" stroke-width="2" stroke-linecap="round"/>
<path d="M19.167 20.7656L19.167 18.2656" stroke="white" stroke-width="2" stroke-linecap="round"/>
<path d="M10 14.099H25V14.099C24.5353 14.099 24.303 14.099 24.1098 14.1374C23.3164 14.2952 22.6962 14.9154 22.5384 15.7088C22.5 15.902 22.5 16.1343 22.5 16.599V20.9323C22.5 22.8179 22.5 23.7607 21.9142 24.3465C21.3284 24.9323 20.3856 24.9323 18.5 24.9323H16.5C14.6144 24.9323 13.6716 24.9323 13.0858 24.3465C12.5 23.7607 12.5 22.8179 12.5 20.9323V16.599C12.5 16.1343 12.5 15.902 12.4616 15.7088C12.3038 14.9154 11.6836 14.2952 10.8902 14.1374C10.697 14.099 10.4647 14.099 10 14.099V14.099Z" stroke="white" stroke-width="2" stroke-linecap="round"/>
<path d="M15.8904 11.0745C15.9854 10.9859 16.1946 10.9076 16.4857 10.8517C16.7768 10.7959 17.1334 10.7656 17.5003 10.7656C17.8672 10.7656 18.2239 10.7959 18.5149 10.8517C18.806 10.9076 19.0152 10.9859 19.1102 11.0745" stroke="white" stroke-width="2" stroke-linecap="round"/>
</svg>
