<svg width="40" height="40" viewBox="0 0 40 40" fill="none" xmlns="http://www.w3.org/2000/svg">
<path d="M31.0543 22.2388C30.7717 22.5013 30.7717 22.895 30.9837 23.1575C31.1249 23.2887 31.3368 23.3543 31.4782 23.3543C31.6194 23.3543 31.8313 23.2887 31.9726 23.1575C33.9505 21.517 35.01 19.3517 35.01 17.1863C35.01 12.1338 29.2883 8 22.2952 8C17.5624 8 13.2535 9.83728 11.0637 12.8556C6.82549 14.4304 4 17.7113 4 21.1889C4 23.3543 5.0596 25.5196 7.03741 27.16C7.31999 27.4225 7.74376 27.3569 8.02634 27.0944C8.30892 26.8319 8.23826 26.4382 7.95568 26.1758C6.33099 24.7978 5.41271 23.0262 5.41271 21.1889C5.41271 18.1706 7.95568 15.4146 11.8408 14.1023C13.3948 13.5774 15.0195 13.3149 16.7148 13.3149C22.9309 13.3149 28.0169 16.8581 28.0169 21.1889C28.0169 22.6981 27.4518 24.1416 26.3216 25.3883C24.2024 27.6849 20.6705 29.0629 16.7148 29.0629C16.0084 29.0629 15.2314 28.9973 14.525 28.9317C13.3948 28.8005 12.1939 28.9973 11.2757 29.5222L8.23826 31.1627V29.063C8.23826 28.6692 7.95568 28.4068 7.5319 28.4068C7.10813 28.4068 6.82555 28.6693 6.82555 29.063V32.3438C6.82555 32.6063 6.96681 32.8031 7.17873 32.9344C7.31998 33 7.39065 33 7.5319 33C7.67316 33 7.81448 33 7.88508 32.9344L11.9821 30.6378C12.6178 30.2441 13.4655 30.1129 14.3131 30.2441C15.0902 30.3753 15.8672 30.3753 16.7148 30.3753C20.8118 30.3753 24.5557 28.9974 26.9573 26.6352L31.1956 28.9973C31.2662 29.063 31.4075 29.063 31.5488 29.063C31.69 29.063 31.7607 29.063 31.9019 28.9973C32.1139 28.8661 32.2551 28.6692 32.2551 28.4067V25.1259C32.2551 24.7322 31.9725 24.4698 31.5488 24.4698C31.125 24.4698 30.8424 24.7322 30.8424 25.1259V27.2256L27.8756 25.5852C28.8645 24.2729 29.4296 22.7638 29.4296 21.1889C29.4296 16.1364 23.7079 12.0026 16.7148 12.0026C15.6552 12.0026 14.5957 12.1338 13.6067 12.2651C15.7258 10.4934 18.9752 9.37793 22.3658 9.37793C28.5819 9.37793 33.6679 12.9212 33.6679 17.2519C33.6679 19.0892 32.7496 20.8608 31.0543 22.2388Z" fill="#818181" stroke="#818181"/>
</svg>
