<svg width="24" height="24" viewBox="0 0 24 24" fill="none" xmlns="http://www.w3.org/2000/svg">
<g clip-path="url(#clip0_164_230760)">
<path d="M22.9983 22.0003H21.9985V10.9334C23.0087 10.6133 23.3826 9.24238 22.5152 8.46199L13.9972 0.804903C12.8937 -0.273098 11.0957 -0.273098 9.96347 0.833352L1.48719 8.45172C0.617465 9.2353 0.990109 10.6083 2.00142 10.932C2.00123 11.7582 2.00123 11.796 2.001 13.0026C2.00076 14.2462 2.00057 15.4614 2.00043 16.6022C2.0002 19.0198 2.00029 20.8786 2.00081 22.0003H1.00178C0.449585 22.0003 0.00195312 22.4479 0.00195312 23.0001C0.00195312 23.5523 0.449585 24 1.00178 24H3.00143H9.00048H14.9995H20.9986H22.9983C23.5505 24 23.9981 23.5523 23.9981 23.0001C23.9981 22.4479 23.5505 22.0003 22.9983 22.0003ZM11.3306 2.29206C11.7165 1.91627 12.2741 1.91627 12.6305 2.26408L20.1253 9.00232H3.86586L11.3306 2.29206ZM10.0004 22.0003V20.0006H11.0002C11.5524 20.0006 12 19.5529 12 19.0007C12 18.4485 11.5524 18.0009 11.0002 18.0009H10.0004V16.0012H13.9997V22.0003H10.0004ZM15.9994 22.0003V15.0014C15.9994 14.4492 15.5518 14.0015 14.9996 14.0015H9.00053C8.44834 14.0015 8.0007 14.4492 8.0007 15.0014V22.0003H4.00046C3.99995 20.8795 3.99985 19.0194 4.00009 16.6024C4.00018 15.4617 4.00037 14.2465 4.0006 13.0029C4.00084 11.8312 4.00084 11.7617 4.00102 11.002H19.9988V22.0003H15.9994Z" fill="#551756" stroke="#F9FAFF" stroke-width="0.4"/>
</g>
<defs>
<clipPath id="clip0_164_230760">
<rect width="24" height="24" fill="white"/>
</clipPath>
</defs>
</svg>
