<svg width="25" height="25" viewBox="0 0 25 25" fill="none" xmlns="http://www.w3.org/2000/svg">
<g clip-path="url(#clip0_164_230828)">
<path fill-rule="evenodd" clip-rule="evenodd" d="M22.5801 11.998C22.2391 8.5 20.1711 3 13.7801 3C7.38905 3 5.32105 8.5 4.98005 11.998C3.78382 12.452 2.99476 13.6005 3.00003 14.88V16.42C3.00003 18.121 4.37902 19.5 6.08005 19.5C7.78109 19.5 9.16005 18.121 9.16005 16.42V14.88C9.15452 13.6281 8.39445 12.5032 7.23505 12.031C7.45505 10.007 8.53305 5.2 13.7801 5.2C19.0271 5.2 20.0941 10.007 20.3141 12.031C19.157 12.5042 18.4008 13.6299 18.4001 14.88V16.42C18.4048 17.6025 19.0838 18.6786 20.1491 19.192C19.6871 20.061 18.5101 21.238 15.6171 21.59C15.0388 20.7119 13.9199 20.3657 12.9467 20.7638C11.9736 21.1619 11.4181 22.1929 11.6211 23.2246C11.824 24.2563 12.7286 25 13.7801 25C14.6109 24.9954 15.3683 24.5231 15.7381 23.779C20.4571 23.24 21.9641 20.809 22.4371 19.379C23.7167 18.9645 24.5773 17.765 24.5601 16.42V14.88C24.5653 13.6005 23.7763 12.452 22.5801 11.998ZM6.96005 16.42C6.96005 16.906 6.56606 17.3 6.08005 17.3C5.59404 17.3 5.20005 16.906 5.20005 16.42V14.88C5.20005 14.5656 5.36778 14.2751 5.64005 14.1179C5.91233 13.9607 6.24778 13.9607 6.52005 14.1179C6.79233 14.2751 6.96005 14.5656 6.96005 14.88V16.42ZM20.6001 14.88C20.6001 14.394 20.994 14 21.4801 14C21.9661 14 22.3601 14.394 22.3601 14.88V16.42C22.3601 16.906 21.9661 17.3 21.4801 17.3C20.994 17.3 20.6001 16.906 20.6001 16.42V14.88Z" fill="#551756" stroke="#F9FAFF" stroke-width="0.4"/>
</g>
<defs>
<clipPath id="clip0_164_230828">
<rect width="24" height="24" fill="white" transform="translate(0.858154 0.637695)"/>
</clipPath>
</defs>
</svg>
