<svg width="24" height="24" viewBox="0 0 24 24" fill="none" xmlns="http://www.w3.org/2000/svg">
<g clip-path="url(#clip0_164_230821)">
<path fill-rule="evenodd" clip-rule="evenodd" d="M4.85947 10.7098C4.71323 6.61007 7.82884 3.16188 11.8256 3C15.8225 3.16188 18.9381 6.61007 18.7919 10.7098C18.7919 12.4126 20.5958 14.0715 20.6487 15.7782C20.6487 15.8023 20.6487 15.8264 20.6487 15.8506C20.6877 16.944 19.8566 17.8635 18.7906 17.9063H14.7667C14.7704 18.7442 14.4625 19.552 13.9057 20.1651C13.3703 20.7614 12.616 21.1007 11.8256 21.1007C11.0353 21.1007 10.2811 20.7614 9.74568 20.1651C9.18882 19.552 8.8809 18.7442 8.88464 17.9063H4.85947C3.79347 17.8635 2.96229 16.944 3.00132 15.8506C3.00132 15.8264 3.00132 15.8023 3.00132 15.7782C3.05553 14.0766 4.85947 12.4139 4.85947 10.7098Z" stroke="#551756" stroke-width="1.5" stroke-linecap="round" stroke-linejoin="round"/>
<path d="M9.75 13.279C9.33579 13.279 9 13.6148 9 14.029C9 14.4432 9.33579 14.779 9.75 14.779V13.279ZM14.2994 14.779C14.7136 14.779 15.0494 14.4432 15.0494 14.029C15.0494 13.6148 14.7136 13.279 14.2994 13.279V14.779ZM12.9997 1.25C13.4139 1.25 13.7497 0.91421 13.7497 0.5C13.7497 0.08579 13.4139 -0.25 12.9997 -0.25V1.25ZM11.0497 -0.25C10.6355 -0.25 10.2997 0.08579 10.2997 0.5C10.2997 0.91421 10.6355 1.25 11.0497 1.25V-0.25ZM9.75 14.779H14.2994V13.279H9.75V14.779ZM12.9997 -0.25H11.0497V1.25H12.9997V-0.25Z" fill="#551756"/>
</g>
<defs>
<clipPath id="clip0_164_230821">
<rect width="24" height="24" fill="white"/>
</clipPath>
</defs>
</svg>
