<svg width="24" height="27" viewBox="0 0 24 27" fill="none" xmlns="http://www.w3.org/2000/svg">
<path d="M5.88867 20.5548H10.1664H14.4442" stroke="#551756" stroke-width="1.5" stroke-linecap="round" stroke-linejoin="round"/>
<path d="M5.88867 15.668H6.49978H7.11089" stroke="#551756" stroke-width="1.5" stroke-linecap="round" stroke-linejoin="round"/>
<path d="M5.88867 10.7776H7.72201H9.55534" stroke="#551756" stroke-width="1.5" stroke-linecap="round" stroke-linejoin="round"/>
<path d="M5.88892 1H17.5L23 6.5V21.7778" stroke="#551756" stroke-width="1.5" stroke-linecap="round" stroke-linejoin="round"/>
<path d="M1 23.6124V6.5013C1 5.48878 1.82081 4.66797 2.83333 4.66797H14.7518C14.9463 4.66797 15.1328 4.74523 15.2703 4.88276L19.1186 8.73095C19.2561 8.86849 19.3333 9.05501 19.3333 9.24951V23.6124C19.3333 24.6249 18.5125 25.4457 17.5 25.4457H2.83333C1.82081 25.4457 1 24.6249 1 23.6124Z" stroke="#551756" stroke-width="1.5" stroke-linecap="round" stroke-linejoin="round"/>
<path d="M14.4453 4.66797V8.82352C14.4453 9.22853 14.7736 9.55686 15.1786 9.55686H19.3342" stroke="#551756" stroke-width="1.5" stroke-linecap="round" stroke-linejoin="round"/>
</svg>
