<svg width="24" height="24" viewBox="0 0 24 24" fill="none" xmlns="http://www.w3.org/2000/svg">
<g clip-path="url(#clip0_164_230795)">
<path d="M12 7.47272C13.7096 7.47272 15.1005 6.0818 15.1005 4.37217C15.1005 2.66255 13.7096 1.27163 12 1.27163C10.2903 1.27163 8.89941 2.66255 8.89941 4.37217C8.89941 6.08175 10.2903 7.47272 12 7.47272ZM12 2.76839C12.8842 2.76839 13.6036 3.48778 13.6036 4.37208C13.6036 5.25638 12.8843 5.97577 12 5.97577C11.1157 5.97577 10.3963 5.25638 10.3963 4.37208C10.3963 3.48783 11.1157 2.76839 12 2.76839Z" fill="#551756"/>
<path d="M6.99967 14.9407H17C17.4134 14.9407 17.7485 14.6056 17.7485 14.1923C17.7485 11.0224 15.1697 8.44364 11.9999 8.44364C8.8301 8.44364 6.25122 11.0224 6.25122 14.1923C6.25122 14.6056 6.58633 14.9407 6.99967 14.9407ZM16.1856 13.4438H7.81408C8.64311 8.79422 15.3574 8.79891 16.1856 13.4438Z" fill="#551756"/>
<path d="M15.0205 17.8136L13.3971 17.5777L12.6711 16.1067C12.3971 15.5515 11.6029 15.5512 11.3288 16.1067L10.6028 17.5777L8.97941 17.8136C8.3668 17.9026 8.12108 18.6578 8.56461 19.0902L9.73925 20.2352L9.46194 21.852C9.35727 22.4622 9.99964 22.9293 10.5479 22.641L11.9999 21.8777L13.4519 22.641C13.9968 22.9275 14.6432 22.4663 14.5378 21.852L14.2605 20.2352L15.4352 19.0902C15.8786 18.6581 15.6335 17.9027 15.0205 17.8136ZM12.8062 20.6104C11.9388 20.1544 12.0078 20.1825 11.1938 20.6104C11.3498 19.7007 11.3992 19.7628 10.6955 19.0769C11.6093 18.9441 11.5651 19.0103 12 18.1291C12.4336 19.0078 12.3894 18.9439 13.3045 19.0769C12.6028 19.7608 12.6499 19.699 12.8062 20.6104Z" fill="#551756" stroke="#F9FAFF" stroke-width="0.4"/>
<path d="M6.68204 17.8136L5.05867 17.5777L4.33267 16.1067C4.05868 15.5515 3.26448 15.5512 2.99036 16.1067L2.2644 17.5777L0.641027 17.8136C0.0284175 17.9026 -0.217301 18.6578 0.22623 19.0902L1.40092 20.2352L1.12361 21.852C1.01893 22.4621 1.66131 22.9293 2.20956 22.641L3.66156 21.8776L5.11356 22.641C5.65843 22.9275 6.30489 22.4663 6.19951 21.852L5.9222 20.2352L7.09684 19.0902C7.54014 18.6581 7.29503 17.9027 6.68204 17.8136ZM4.46776 20.6104C3.62059 20.165 3.70253 20.165 2.85536 20.6104C3.01145 19.7006 3.06076 19.7628 2.35707 19.0769C3.27085 18.9441 3.22665 19.0103 3.66156 18.1291C4.0952 19.0078 4.051 18.9439 4.96604 19.0769C4.3051 19.7211 4.30159 19.6418 4.46776 20.6104Z" fill="#551756" stroke="#F9FAFF" stroke-width="0.4"/>
<path d="M23.359 17.8136L21.7357 17.5777L21.0097 16.1067C20.7357 15.5515 19.9415 15.5512 19.6674 16.1067L18.9414 17.5777L17.318 17.8136C16.7054 17.9026 16.4597 18.6578 16.9032 19.0902L18.078 20.2352L17.8007 21.852C17.696 22.4622 18.3383 22.9293 18.8866 22.641L20.3386 21.8777L21.7906 22.641C22.3355 22.9275 22.9819 22.4663 22.8766 21.852L22.5992 20.2352L23.7739 19.0902C24.2171 18.6581 23.972 17.9027 23.359 17.8136ZM21.1448 20.6104C20.2773 20.1543 20.3506 20.1802 19.5324 20.6104C19.6885 19.7007 19.7378 19.7628 19.0341 19.0769C20.0038 18.936 19.9294 18.9583 20.3386 18.1291C20.7722 19.0078 20.728 18.9439 21.6431 19.0769C20.9414 19.7608 20.9885 19.6991 21.1448 20.6104Z" fill="#551756" stroke="#F9FAFF" stroke-width="0.4"/>
</g>
<defs>
<clipPath id="clip0_164_230795">
<rect width="24" height="24" fill="white"/>
</clipPath>
</defs>
</svg>
